<?xml version="1.0" standalone="no"?>
<!DOCTYPE svg PUBLIC "-//W3C//DTD SVG 20010904//EN"
 "http://www.w3.org/TR/2001/REC-SVG-20010904/DTD/svg10.dtd">
<svg version="1.0" xmlns="http://www.w3.org/2000/svg"
 width="1170.000000pt" height="1080.000000pt" viewBox="0 0 1170.000000 1080.000000"
 preserveAspectRatio="xMidYMid meet">
<metadata>
Created by potrace 1.16, written by Peter Selinger 2001-2019
</metadata>
<g transform="translate(0.000000,1080.000000) scale(0.100000,-0.100000)"
fill="#000000" stroke="none">
<path d="M7986 8799 c-163 -24 -386 -94 -531 -166 -464 -233 -811 -683 -914
-1184 -76 -369 -38 -668 134 -1064 230 -526 732 -1212 1348 -1840 l152 -155
50 0 50 0 152 155 c191 194 377 402 551 615 615 750 934 1367 968 1870 17 252
-55 580 -184 835 -251 499 -718 839 -1277 930 -99 16 -398 19 -499 4z m444
-494 c247 -40 475 -159 660 -343 213 -213 336 -476 360 -769 50 -627 -377
-1186 -999 -1310 -118 -24 -338 -23 -451 0 -339 71 -612 252 -799 532 -360
539 -234 1269 287 1659 152 115 349 201 528 231 109 18 300 18 414 0z"/>
<path d="M8170 7953 c-40 -28 -787 -710 -804 -735 -27 -38 -21 -95 13 -129 27
-27 35 -29 105 -29 l76 0 0 -354 c0 -336 1 -355 20 -378 33 -43 66 -50 225
-46 l147 3 29 33 29 32 0 218 c0 309 2 312 215 312 213 0 215 -3 215 -312 l0
-218 29 -32 29 -33 167 0 167 0 29 33 29 32 0 355 0 355 76 0 c70 0 78 2 105
29 33 34 40 91 13 129 -8 12 -115 113 -237 224 -122 111 -294 268 -382 348
-88 81 -171 154 -185 163 -32 22 -79 22 -110 0z"/>
<path d="M5331 8255 c-149 -33 -280 -126 -304 -212 -10 -39 -15 -44 -72 -67
-145 -58 -395 -175 -448 -209 -71 -46 -94 -89 -77 -143 14 -41 54 -71 107 -80
68 -11 200 55 384 190 41 30 77 51 81 48 24 -26 162 -534 197 -727 46 -260 53
-555 16 -725 -72 -327 -265 -524 -585 -595 -99 -22 -452 -32 -584 -16 -157 18
-260 65 -321 145 -74 98 -89 277 -40 486 15 63 29 138 32 167 5 45 2 55 -20
77 -42 42 -83 43 -220 3 -232 -68 -456 -93 -757 -84 -252 8 -601 54 -703 92
-20 8 -61 -69 -106 -201 l-31 -91 0 -315 0 -315 44 -41 c48 -44 94 -75 174
-117 l51 -27 -28 -57 c-54 -106 -73 -178 -78 -301 -7 -147 16 -252 84 -384 38
-73 65 -109 138 -182 80 -81 103 -98 195 -142 125 -60 216 -82 342 -82 124 0
237 28 352 87 129 67 253 190 319 319 63 122 90 240 85 357 l-4 88 35 -6 c62
-9 507 -25 727 -25 319 0 556 23 789 75 60 14 110 25 111 25 1 0 4 -44 7 -97
10 -177 50 -250 141 -260 33 -4 53 -1 71 11 20 13 26 14 29 4 3 -7 10 -31 16
-53 20 -65 87 -187 138 -251 66 -82 152 -148 257 -199 110 -53 205 -75 325
-75 124 0 215 22 340 82 92 44 115 61 196 142 80 81 98 105 142 196 107 221
110 441 8 656 l-33 71 61 -1 61 -1 -1 40 c-1 69 -46 150 -132 235 -146 145
-345 231 -608 261 l-104 13 0 66 c0 98 -21 154 -100 265 -240 337 -464 734
-596 1055 -44 107 -104 275 -104 290 0 4 26 3 58 -2 31 -6 98 -8 148 -5 121 5
174 30 204 93 20 40 22 57 18 192 -4 171 -14 200 -89 242 -39 22 -58 25 -159
27 -72 2 -139 -3 -179 -12z m1127 -2813 c270 -202 224 -608 -85 -755 -63 -30
-75 -32 -174 -32 -101 0 -108 1 -181 38 -200 98 -295 311 -237 529 8 29 19 42
48 58 l39 19 28 -37 c121 -163 231 -295 254 -307 61 -31 136 -19 179 30 56 64
53 138 -9 210 -76 88 -172 216 -167 222 12 11 192 62 223 62 22 1 48 -11 82
-37z m-3696 -132 c27 0 23 -10 -38 -79 -81 -93 -92 -137 -53 -212 21 -42 80
-78 126 -79 66 0 155 75 309 263 28 34 36 38 70 35 l39 -3 14 -69 c38 -184
-66 -384 -246 -473 -65 -32 -86 -37 -161 -41 -70 -3 -99 0 -151 18 -205 69
-337 281 -303 484 12 72 51 168 83 202 l20 21 136 -33 c76 -19 145 -34 155
-34z"/>
<path d="M1945 7071 c-62 -28 -66 -37 -63 -147 l3 -99 59 -23 c135 -54 357
-80 736 -89 604 -13 1069 56 1096 163 17 67 -29 160 -96 194 -38 20 -56 20
-867 20 -779 0 -830 -2 -868 -19z"/>
<path d="M7990 3963 c-52 -19 -83 -39 -95 -63 -35 -68 -27 -158 18 -208 49
-53 219 -68 301 -27 63 31 81 65 81 145 0 83 -20 117 -86 142 -43 16 -184 24
-219 11z"/>
<path d="M4360 3185 l0 -765 205 0 205 0 0 765 0 765 -205 0 -205 0 0 -765z"/>
<path d="M8864 3634 l-49 -116 -82 -61 -83 -61 0 -78 0 -78 60 0 60 0 0 -262
c0 -349 17 -428 108 -510 62 -56 125 -73 272 -72 108 0 136 4 208 28 l82 27 0
134 c0 150 4 144 -74 120 -74 -23 -122 -20 -151 10 l-25 24 0 251 0 250 115 0
115 0 0 145 0 145 -115 0 -115 0 0 110 0 110 -138 0 -138 0 -50 -116z"/>
<path d="M3305 3536 c-195 -45 -328 -183 -370 -384 -19 -86 -19 -278 -1 -363
30 -141 117 -261 233 -322 118 -61 168 -72 343 -71 162 0 228 11 333 56 l47
20 0 135 c0 124 -1 135 -17 130 -10 -3 -52 -18 -93 -33 -89 -32 -270 -45 -333
-25 -45 15 -92 68 -108 120 -22 74 -36 71 312 71 l311 0 -4 163 c-4 138 -8
171 -28 222 -31 80 -58 122 -112 172 -51 46 -86 66 -167 95 -73 26 -260 34
-346 14z m247 -285 c27 -30 48 -86 48 -128 0 -23 -2 -23 -130 -23 l-130 0 0
34 c0 62 37 126 85 147 38 17 98 2 127 -30z"/>
<path d="M5570 3540 c-183 -34 -328 -158 -379 -326 -84 -270 -19 -570 153
-706 209 -167 548 -154 730 28 102 102 149 240 149 434 0 182 -41 308 -133
413 -95 107 -209 157 -370 163 -58 1 -125 -1 -150 -6z m177 -295 c44 -31 58
-96 58 -275 0 -228 -25 -290 -116 -290 -88 0 -126 111 -116 335 6 136 18 187
52 221 28 28 88 32 122 9z"/>
<path d="M7033 3529 c-220 -37 -380 -180 -429 -385 -22 -92 -22 -276 0 -367
50 -210 178 -330 396 -373 147 -29 324 -4 435 61 l45 26 0 155 0 154 -37 -24
c-44 -29 -138 -61 -204 -71 -67 -10 -126 10 -175 59 -51 50 -69 120 -62 238 6
96 36 160 97 203 38 27 51 30 114 30 57 0 84 -6 131 -28 32 -15 60 -26 62 -25
1 2 25 63 53 137 58 151 60 139 -34 171 -140 47 -268 60 -392 39z"/>
<path d="M1440 3516 c0 -8 29 -97 65 -198 35 -101 98 -282 140 -403 42 -121
98 -281 124 -355 l47 -135 210 -3 210 -2 197 542 c109 299 197 549 197 556 0
9 -48 12 -205 12 -204 0 -206 0 -215 -22 -12 -29 -165 -647 -176 -708 -7 -43
-8 -40 -34 90 -34 167 -138 619 -146 631 -3 5 -97 9 -210 9 -170 0 -204 -2
-204 -14z"/>
<path d="M7890 2975 l0 -555 205 0 205 0 -2 553 -3 552 -202 3 -203 2 0 -555z"/>
<path d="M9707 3523 c-2 -5 87 -249 199 -543 224 -588 217 -559 166 -654 -36
-67 -86 -89 -186 -84 l-71 3 -2 -140 c-2 -77 1 -147 7 -155 7 -12 35 -15 147
-15 157 0 234 19 315 78 109 78 151 155 262 472 252 727 356 1029 356 1036 0
6 -85 8 -202 7 l-203 -3 -88 -315 c-49 -173 -91 -341 -94 -372 -7 -66 -23 -78
-23 -18 0 39 -153 659 -171 693 -9 15 -29 17 -209 17 -109 0 -201 -3 -203 -7z"/>
</g>
</svg>
